<svg xmlns="http://www.w3.org/2000/svg" xmlns:xlink="http://www.w3.org/1999/xlink" width="405.946" height="41.593" viewBox="0 0 405.946 41.593">
  <defs>
    <clipPath id="clip-path">
      <rect id="Rect치ngulo_93" data-name="Rect치ngulo 93" width="117.676" height="41.454" fill="#fff"/>
    </clipPath>
    <clipPath id="clip-path-2">
      <rect id="Rect치ngulo_97" data-name="Rect치ngulo 97" width="265.956" height="41.593" fill="none"/>
    </clipPath>
  </defs>
  <g id="Grupo_627" data-name="Grupo 627" transform="translate(-901.162 -6264.764)">
    <g id="Grupo_621" data-name="Grupo 621" transform="translate(901.162 6264.902)">
      <g id="Grupo_616" data-name="Grupo 616" transform="translate(0 0)" clip-path="url(#clip-path)">
        <path id="Trazado_560" data-name="Trazado 560" d="M8.957,0H.073L0,31.093c-.018,6.679,4.211,10.345,9.96,10.361a32.5,32.5,0,0,0,7.063-1.227v-5.61a31.006,31.006,0,0,1-4.951-.343c-1.911-.5-3.192-1.706-3.183-4.666L8.918,16.8l8.536.02.018-6.214-8.536-.02Z" transform="translate(0 0)" fill="#fff"/>
        <path id="Trazado_561" data-name="Trazado 561" d="M88.693,19.285a9.051,9.051,0,0,0,7.09-8.977C95.8,4,90.2.071,81.207.048L62.4,0l-.105,40.94H81.745c9.463.026,15.432-4.282,15.448-11.291a9.983,9.983,0,0,0-8.5-10.363M71.609,7.557l9.112.023c3.5-.048,5.6,1.593,5.6,4.4-.007,2.861-2.116,4.55-5.619,4.541L71.586,16.5ZM80.654,33.4l-9.112-.023.026-9.7,9.111.023c4.321-.046,7.005,1.772,7,4.75-.009,3.154-2.7,4.96-7.024,4.949" transform="translate(-37.038 0)" fill="#fff"/>
        <path id="Trazado_562" data-name="Trazado 562" d="M175.942,24.184l19.668.05.018-7.644-19.667-.051.023-8.872,21.884.057L197.888,0H166.676V40.948h31.751l.018-7.658-22.528-.057Z" transform="translate(-99.102 0)" fill="#fff"/>
        <path id="Trazado_563" data-name="Trazado 563" d="M271.129,78.251a4.865,4.865,0,1,0,4.853,4.89,4.785,4.785,0,0,0-4.853-4.89m-.021,8.785a3.931,3.931,0,1,1,3.9-3.9,3.855,3.855,0,0,1-3.9,3.9" transform="translate(-158.307 -46.526)" fill="#fff"/>
        <path id="Trazado_564" data-name="Trazado 564" d="M277.77,85.895c0-.9-.729-1.481-1.822-1.484L273.88,84.4l-.012,4.466.973,0,0-1.432.729,0,1.258,1.436,1.168,0-1.382-1.533a1.5,1.5,0,0,0,1.152-1.453m-1.831.674-1.092,0,0-1.284,1.092,0c.506,0,.846.246.845.632s-.341.654-.848.652" transform="translate(-162.836 -50.185)" fill="#fff"/>
      </g>
    </g>
    <g id="Grupo_629" data-name="Grupo 629" transform="translate(1041.152 6264.764)">
      <g id="Grupo_628" data-name="Grupo 628" transform="translate(0 0)" clip-path="url(#clip-path-2)">
        <path id="Trazado_579" data-name="Trazado 579" d="M31.55,33.394,29.412,27.57a2.389,2.389,0,0,0-.743-1.189,3.443,3.443,0,0,0-1.574-.237H16.517a2.426,2.426,0,0,0-1.632.415,7.3,7.3,0,0,0-1.159,2.258L12,33.394a3.636,3.636,0,0,0-.237,1.247q0,1.9,2.317,1.9a16.9,16.9,0,0,0,1.694-.118q1.1-.119,1.634-.118,2.435,0,2.436,2.08,0,1.961-2.675,1.96a9.819,9.819,0,0,1-1.307-.12l-2.971-.368a24.141,24.141,0,0,0-2.733-.106,28.7,28.7,0,0,0-2.911.1l-2.5.3a23.2,23.2,0,0,1-2.435.2Q0,40.345,0,38.385,0,36.3,2.258,36.3a.975.975,0,0,1,.713.237h.773A2.74,2.74,0,0,0,6.18,35.29a14.783,14.783,0,0,0,1.188-2.8L18.421,2.5A3.653,3.653,0,0,1,22.163,0a3.513,3.513,0,0,1,3.625,2.495L36.423,31.968a11.846,11.846,0,0,0,1.842,3.684,3.1,3.1,0,0,0,2.378.89,2.411,2.411,0,0,0,.711-.078L43.02,36.3q2.257,0,2.257,1.959,0,2.08-2.257,2.082a14.716,14.716,0,0,1-1.724-.133,50.44,50.44,0,0,0-5.586-.461q-2.2,0-7.13.475-1.249.119-1.9.12-2.377,0-2.377-2.02t2.615-2.02a15.013,15.013,0,0,1,1.574.118,15.012,15.012,0,0,0,1.574.118q1.961,0,1.962-1.6a8.179,8.179,0,0,0-.476-1.544M27.274,21.272l-5.348-16.4-5.467,16.4a2.47,2.47,0,0,0-.118.415q0,.537.891.536h9.448q.712,0,.713-.476a1.928,1.928,0,0,0-.118-.475" transform="translate(0 -0.001)" fill="#fff"/>
        <path id="Trazado_580" data-name="Trazado 580" d="M38.629,15.234l4.337,18.112L47.6,12.429A11.988,11.988,0,0,1,49.175,8a3.769,3.769,0,0,1,5.348.03,12.267,12.267,0,0,1,1.575,4.4l4.457,20.917,4.4-18.112a13.015,13.015,0,0,0,.415-2.977v-.12q0-1.608-1.367-1.61a8.393,8.393,0,0,0-1.544.208,8.181,8.181,0,0,1-1.544.21q-2.2,0-2.2-1.962,0-2.08,2.911-2.079a6.6,6.6,0,0,1,.892.064l2.436.335a23.461,23.461,0,0,0,2.971.133,22.9,22.9,0,0,0,3.089-.2l1.962-.268a2.575,2.575,0,0,1,.653-.064q2.554,0,2.555,2.05a1.746,1.746,0,0,1-1.96,1.99,2,2,0,0,1-1.011-.21c-.633-.138-.99-.208-1.069-.208q-1.6,0-3.327,6.64L64.773,32.54a10.037,10.037,0,0,1-1.664,3.917,3.27,3.27,0,0,1-2.615,1.105q-3.151,0-4.22-4.991L51.82,11.42,47.185,32.169a10.212,10.212,0,0,1-1.664,4.179,3.373,3.373,0,0,1-2.734,1.214q-2.792,0-3.744-3.691l-5.7-21.436q-.537-1.907-1.665-1.908a3.622,3.622,0,0,0-1.068.25,9.033,9.033,0,0,1-1.307.168,1.72,1.72,0,0,1-1.962-1.93q0-2.111,2.673-2.11a2.2,2.2,0,0,1,.654.064l2.556.4a14.536,14.536,0,0,0,2.2.132,31.557,31.557,0,0,0,3.8-.264q2.675-.33,3.091-.329,2.615,0,2.615,2.05,0,1.988-2.2,1.99a13.637,13.637,0,0,1-1.486-.139,4.42,4.42,0,0,0-1.486-.279c-1.032,0-1.544.6-1.544,1.788a12.755,12.755,0,0,0,.415,2.919" transform="translate(13.601 3.435)" fill="#fff"/>
        <path id="Trazado_581" data-name="Trazado 581" d="M87.6,19.518a7.332,7.332,0,0,1-.3,2.764q-.3.505-1.722.5H66.69A1.663,1.663,0,0,0,65.68,23a.867.867,0,0,0-.237.684,10.69,10.69,0,0,0,2.673,7.428,8.859,8.859,0,0,0,11.438,1.544,6.532,6.532,0,0,0,2.823-3.625l.535-1.724a1.843,1.843,0,0,1,1.96-1.426,1.97,1.97,0,0,1,2.2,2.258Q87.07,32,83.149,35a14.294,14.294,0,0,1-8.913,3,12.543,12.543,0,0,1-9.922-4.19q-3.686-4.187-3.684-11.258,0-7.251,3.92-11.766A12.89,12.89,0,0,1,74.771,6.27a12.273,12.273,0,0,1,9.21,3.742A13.106,13.106,0,0,1,87.6,19.518M66.036,17.974q0,.833,1.307.833h14.2q1.249,0,1.247-.833a7.39,7.39,0,0,0-2.375-5.466,7.745,7.745,0,0,0-5.587-2.318,8.962,8.962,0,0,0-6.06,2.406,7.071,7.071,0,0,0-2.733,5.377" transform="translate(30.162 3.119)" fill="#fff"/>
        <path id="Trazado_582" data-name="Trazado 582" d="M94,6.388a10.455,10.455,0,0,1,6.634,2.08v-.24q0-2.2,1.9-2.2a1.708,1.708,0,0,1,1.962,1.9q0,.357-.1,1.784a14.456,14.456,0,0,0-.2,2.377,20.763,20.763,0,0,0,.147,2.079,20.616,20.616,0,0,1,.15,2.08q0,2.26-1.932,2.258a1.725,1.725,0,0,1-1.93-1.9v-1.96a3.815,3.815,0,0,0-2.05-3.059,8.449,8.449,0,0,0-4.665-1.279,7.356,7.356,0,0,0-4.575,1.4A4.21,4.21,0,0,0,87.5,15.182q0,3.8,5.229,4.516l3.447.475q10.1,1.368,10.1,8.378a8.484,8.484,0,0,1-3.26,6.923,13.113,13.113,0,0,1-8.53,2.643,13.546,13.546,0,0,1-8.531-2.793v1.129q0,2.138-2.022,2.14-2.2,0-2.2-2.436a30.649,30.649,0,0,0,.356-3.091,11.712,11.712,0,0,0,.118-1.664,14.389,14.389,0,0,0-.237-2.673,11.007,11.007,0,0,1-.238-1.962q0-2.078,1.9-2.079c.833,0,1.357.2,1.575.593a9.21,9.21,0,0,1,.386,3.151,4.9,4.9,0,0,0,2.674,4.159,12.537,12.537,0,0,0,6.653,1.6,7.578,7.578,0,0,0,4.813-1.486,4.558,4.558,0,0,0,1.9-3.742q0-4.041-6.418-4.695A25.7,25.7,0,0,1,85.9,21.866q-3.208-1.752-3.209-6.15a8.322,8.322,0,0,1,3.14-6.743A12.434,12.434,0,0,1,94,6.388" transform="translate(40.664 3)" fill="#fff"/>
        <path id="Trazado_583" data-name="Trazado 583" d="M114.788,38a12.562,12.562,0,0,1-9.982-4.308q-3.744-4.308-3.744-11.556t3.772-11.558A12.794,12.794,0,0,1,114.966,6.27q6.476,0,10.219,4.217t3.744,11.468q0,7.251-3.862,11.647A13,13,0,0,1,114.788,38m.3-27.808a7.975,7.975,0,0,0-6.535,2.911q-2.379,2.913-2.615,8.26v.773q0,5.586,2.347,8.763a7.688,7.688,0,0,0,6.565,3.179,8.137,8.137,0,0,0,6.8-3.179q2.462-3.176,2.465-8.822,0-11.885-9.031-11.886" transform="translate(50.277 3.119)" fill="#fff"/>
        <path id="Trazado_584" data-name="Trazado 584" d="M132.132,9.061v1.724a13.993,13.993,0,0,1,4.04-3.536,10.329,10.329,0,0,1,4.755-.979q5.822,0,8.557,4.515a12.5,12.5,0,0,1,4.1-3.506,12.258,12.258,0,0,1,5.349-1.009A12.635,12.635,0,0,1,164.99,7.7a8.588,8.588,0,0,1,4.1,4.525,18.225,18.225,0,0,1,.771,6.192V28.659q0,2.444.058,2.977.294,2.145,1.53,2.144a5.555,5.555,0,0,0,1.235-.208,5.565,5.565,0,0,1,1.237-.208q2.058,0,2.059,1.782,0,2.082-2.377,2.082a26.035,26.035,0,0,1-2.7-.21,26.511,26.511,0,0,0-2.763-.208c-.674,0-1.656.07-2.941.208s-2.269.21-2.943.21q-2.493,0-2.495-2.082,0-1.781,1.9-1.782.236,0,1.189.12a3.125,3.125,0,0,0,.949.118,1.215,1.215,0,0,0,1.277-1.011,29.192,29.192,0,0,0,.328-5.05V19.994a20.7,20.7,0,0,0-.621-5.972,5.364,5.364,0,0,0-2.339-2.94,7.217,7.217,0,0,0-3.9-1.071q-4.2,0-5.857,2.911-1.3,2.318-1.3,8.082v4.218a52.014,52.014,0,0,0,.268,6.981q.267,1.4,1.4,1.4a6.771,6.771,0,0,0,1.041-.118,6.593,6.593,0,0,1,1.039-.12,1.906,1.906,0,0,1,1.4.557,1.849,1.849,0,0,1,.565,1.375q0,1.932-2.791,1.932a21.472,21.472,0,0,1-2.645-.24,21.785,21.785,0,0,0-2.643-.238,17.534,17.534,0,0,0-2.734.238,16.808,16.808,0,0,1-2.615.24q-2.437,0-2.436-2.022a1.6,1.6,0,0,1,1.784-1.842,2.489,2.489,0,0,1,1.011.166,4.822,4.822,0,0,0,1.247.25q1.424,0,1.486-3.044l.177-2.808v-8.66q0-5.193-1.4-7.225t-4.961-2.031a6.96,6.96,0,0,0-6,2.866q-1.725,2.329-1.722,8.122v7.941q0,2.392.058,2.806.236,2.033,1.307,2.032a5.073,5.073,0,0,0,1.249-.332,1.17,1.17,0,0,0,.355-.084h.416q2.318,0,2.317,1.96,0,1.9-2.673,1.9a21.34,21.34,0,0,1-2.495-.18,30.514,30.514,0,0,0-3.447-.238q-.712,0-2.615.178-2.556.238-3.089.24-2.377,0-2.377-2.022,0-1.84,2.3-1.842h.362a1.637,1.637,0,0,0,.362.06l1.514.3a.347.347,0,0,0,.243.06q1.633,0,1.755-2.911V18.389a42.2,42.2,0,0,0-.268-6.3,1.382,1.382,0,0,0-1.456-1.249,15.091,15.091,0,0,0-1.664.3,5.12,5.12,0,0,1-.951.12q-2.2,0-2.2-1.9,0-2.019,2.436-2.02.654,0,1.782.118a19.043,19.043,0,0,0,1.962.12H129.1l1.426-.238h.178q1.426,0,1.426,1.722" transform="translate(60.62 3.119)" fill="#fff"/>
        <path id="Trazado_585" data-name="Trazado 585" d="M186.562,19.518a7.332,7.332,0,0,1-.3,2.764q-.3.505-1.722.5h-18.9a1.663,1.663,0,0,0-1.011.208.867.867,0,0,0-.237.684,10.69,10.69,0,0,0,2.673,7.428,8.859,8.859,0,0,0,11.438,1.544,6.532,6.532,0,0,0,2.823-3.625l.535-1.724a1.843,1.843,0,0,1,1.96-1.426,1.97,1.97,0,0,1,2.2,2.258q0,3.864-3.92,6.863a14.294,14.294,0,0,1-8.913,3,12.543,12.543,0,0,1-9.922-4.19q-3.686-4.187-3.684-11.258,0-7.251,3.92-11.766a12.89,12.89,0,0,1,10.22-4.515,12.273,12.273,0,0,1,9.21,3.742,13.106,13.106,0,0,1,3.624,9.506m-21.568-1.544q0,.833,1.307.833h14.2q1.249,0,1.247-.833a7.39,7.39,0,0,0-2.375-5.466,7.745,7.745,0,0,0-5.587-2.318,8.962,8.962,0,0,0-6.06,2.406,7.071,7.071,0,0,0-2.733,5.377" transform="translate(79.392 3.119)" fill="#fff"/>
      </g>
    </g>
  </g>
</svg>
