<svg xmlns="http://www.w3.org/2000/svg" width="33" height="33" viewBox="0 0 33 33">
  <g id="Grupo_812" data-name="Grupo 812" transform="translate(-1759 -40)">
    <circle id="Elipse_35" data-name="Elipse 35" cx="16.5" cy="16.5" r="16.5" transform="translate(1759 40)" fill="#000" />
    <g id="Grupo_473" data-name="Grupo 473" transform="translate(1766.721 47.721)">
      <g id="Grupo_147" data-name="Grupo 147" transform="translate(0 0)">
        <g id="Grupo_144" data-name="Grupo 144">
          <path id="Trazado_234" data-name="Trazado 234" d="M93.381,552.019H85.618a5.135,5.135,0,0,1-5.129-5.129v-7.763A5.135,5.135,0,0,1,85.618,534h7.763a5.135,5.135,0,0,1,5.129,5.129v7.763A5.135,5.135,0,0,1,93.381,552.019Zm-7.763-16.476a3.588,3.588,0,0,0-3.584,3.584v7.763a3.589,3.589,0,0,0,3.584,3.584h7.763a3.588,3.588,0,0,0,3.584-3.584v-7.763a3.588,3.588,0,0,0-3.584-3.584Z" transform="translate(-80.489 -533.999)" fill="#FFF"/>
        </g>
        <g id="Grupo_145" data-name="Grupo 145" transform="translate(4.396 4.396)">
          <path id="Trazado_235" data-name="Trazado 235" d="M119.334,577.457a4.614,4.614,0,1,1,4.614-4.614A4.619,4.619,0,0,1,119.334,577.457Zm0-7.684a3.07,3.07,0,1,0,3.07,3.069A3.073,3.073,0,0,0,119.334,569.774Z" transform="translate(-114.72 -568.229)" fill="#FFF"/>
        </g>
        <g id="Grupo_146" data-name="Grupo 146" transform="translate(12.713 3.023)">
          <path id="Trazado_236" data-name="Trazado 236" d="M181.7,558.647a1.109,1.109,0,1,1-1.109-1.109A1.109,1.109,0,0,1,181.7,558.647Z" transform="translate(-179.481 -557.538)" fill="#FFF"/>
        </g>
      </g>
    </g>
  </g>
</svg>
