<svg xmlns="http://www.w3.org/2000/svg" xmlns:xlink="http://www.w3.org/1999/xlink" width="39" height="39" viewBox="0 0 39 39">
  <defs>
    <clipPath id="clip-path">
      <rect id="Rect치ngulo_135" data-name="Rect치ngulo 135" width="24.184" height="15.316" fill="none"/>
    </clipPath>
  </defs>
  <g id="Grupo_867" data-name="Grupo 867" transform="translate(-1030 -2491)">
    <g id="Grupo_567" data-name="Grupo 567" transform="translate(-507 2056)">
      <circle id="Elipse_37" data-name="Elipse 37" cx="19.5" cy="19.5" r="19.5" transform="translate(1537 435)"/>
    </g>
    <g id="Grupo_673" data-name="Grupo 673" transform="translate(1037.408 2502.842)" clip-path="url(#clip-path)">
      <path id="Trazado_714" data-name="Trazado 714" d="M9.76,6.847a2.6,2.6,0,0,0,2.289-2.854C12.049,1.31,10.176,0,7.8,0H0V15H7.8s4.764.15,4.764-4.427c0,0,.208-3.724-2.809-3.724M3.439,2.666H7.8s1.061,0,1.061,1.56S8.241,6.013,7.534,6.013h-4.1ZM7.6,12.333H3.439V8.325H7.8s1.581-.021,1.581,2.06c0,1.735-1.157,1.931-1.782,1.949" fill="#fff"/>
      <path id="Trazado_715" data-name="Trazado 715" d="M162.23,45.384c-5.768,0-5.762,5.762-5.762,5.762a5.321,5.321,0,0,0,5.763,5.733s5.132.293,5.132-3.988h-2.639s.088,1.613-2.4,1.613a2.44,2.44,0,0,1-2.64-2.61h7.772s.85-6.511-5.22-6.511m2.346,4.509h-4.927a2.682,2.682,0,0,1,2.639-2.312,2.233,2.233,0,0,1,2.287,2.312" transform="translate(-143.307 -41.568)" fill="#fff"/>
      <rect id="Rect치ngulo_134" data-name="Rect치ngulo 134" width="6.188" height="1.847" transform="translate(15.696 0.883)" fill="#fff"/>
    </g>
  </g>
</svg>
