<svg xmlns="http://www.w3.org/2000/svg" xmlns:xlink="http://www.w3.org/1999/xlink" width="299.786" height="163.928" viewBox="0 0 299.786 163.928">
  <defs>
    <clipPath id="clip-path">
      <rect id="Rectángulo_60" data-name="Rectángulo 60" width="290.448" height="144.018" fill="#ff4700"/>
    </clipPath>
  </defs>
  <g id="Grupo_560" data-name="Grupo 560" transform="matrix(0.998, -0.07, 0.07, 0.998, 0, 20.26)">
    <g id="Grupo_559" data-name="Grupo 559" clip-path="url(#clip-path)">
      <path id="Trazado_510" data-name="Trazado 510" d="M25.6,119.275a7.923,7.923,0,0,1-4.889-2.049c-2.167-2.017-2.321-4.534-.311-6.518a11.977,11.977,0,0,1,3.587-2.634,30.686,30.686,0,0,1,6.888-2.9,4.948,4.948,0,0,0,3.816-3.937c.868-2.666,1.766-5.125,2.839-7.82L54.438,49.9c4.726-12.114,9.248-24.2,13.77-36.285a18.475,18.475,0,0,1,.928-2.25c1.022-.148,1.113.474.968.919a21.516,21.516,0,0,1-.983,3.318C60.306,38.473,51.494,61.341,42.884,84.178c-2.145,5.39-4.116,10.545-6.058,15.906l-.809,3.081a8.127,8.127,0,0,0,2.249-.324c7.622-2.157,15.451-2.862,23.312-3.358,4.734-.471,9.731-.555,14.494-.818a8.194,8.194,0,0,0,3.8-1.181c9.213-7.045,17.429-15.215,22.6-25.7,8.248-16.646,8.72-33.653,2.032-51.111-3.594-9.01-10.07-14.853-19.4-17.32A43.755,43.755,0,0,0,68.346,1.532C47.014,2.7,28.922,11.868,13.448,26.166a40.013,40.013,0,0,0-8.328,10.3,34.03,34.03,0,0,0-3.1,7.434A11.665,11.665,0,0,0,5.943,56.678a27.385,27.385,0,0,1,2.812,2.137c-1.051-.061-1.431.206-1.665.027a17.083,17.083,0,0,1-4.837-4.6A10.857,10.857,0,0,1,.181,45.651a24.074,24.074,0,0,1,3.07-9.124,46.447,46.447,0,0,1,8.266-10.719A92.716,92.716,0,0,1,50.814,3,64.652,64.652,0,0,1,79.069.622c4.708.8,9.475,2.024,13.6,4.6a26.394,26.394,0,0,1,11.229,11.3,59.222,59.222,0,0,1,6.687,26.141C111,61.452,104.063,77.061,91.1,89.938c-2.39,2.25-4.809,4.293-7.229,6.336a24.753,24.753,0,0,0-2.185,2.22c3.975.062,7.307.006,10.463.187,4.853.359,9.737.928,14.414,1.524a23.63,23.63,0,0,1,9.42,3.089c.879.3,1.407,1.068,2.813,2.137-1.287-.238-1.7-.18-1.93-.358a28.409,28.409,0,0,0-11.615-3.832C97.119,99.87,89,99.981,80.841,99.885a6.535,6.535,0,0,0-3.737,1.6,110.925,110.925,0,0,1-18.38,10.057,106.8,106.8,0,0,1-26.252,7.593,38,38,0,0,1-6.867.142M45.61,114.7A105.314,105.314,0,0,0,72.84,102.308a18.009,18.009,0,0,0,2.448-1.835l-2.982-.417c-2.484.146-5.173.321-7.862.5a155.3,155.3,0,0,0-23.956,3.238,44.478,44.478,0,0,0-5.4,1.626l-1.568,3.613c-.319.682-.874,1.184-1.605.443.085-.86.374-1.748.6-3.052a22.321,22.321,0,0,0-10.185,4.643c-2.828,2.1-2.41,5.005.925,6.431a14.265,14.265,0,0,0,2.808.654,36.549,36.549,0,0,0,4.559-.233A75.016,75.016,0,0,0,45.61,114.7" transform="translate(0 0)" fill="#ff4700"/>
      <path id="Trazado_511" data-name="Trazado 511" d="M160.928,111.133c-4.968.291-7.092-5.755-2.053-11.35a16.981,16.981,0,0,1,7.4-6.572,11.652,11.652,0,0,1,2.63-.589,1.927,1.927,0,0,1,1.5,3.171c-.7.947-1.806,1.954-2.709,2.931a35.226,35.226,0,0,1-8.051,4.971,2.746,2.746,0,0,0-2.011,1.984c-.489,2.4.567,3.942,3.111,4.21a18.39,18.39,0,0,0,8.031-2.215,42.3,42.3,0,0,0,6.24-4.5l8.367-7.134c2.389-2.25,4.38-1.478,2.1.12-4.255,3.789-7.228,6.335-11.717,9.945a21.568,21.568,0,0,1-9.542,4.763,17.545,17.545,0,0,1-3.3.264M166.5,97.626c1.107-1.006,2.274-1.6,2.444-3.316-1.551-.624-2.627.59-3.795,1.181a11.417,11.417,0,0,0-4.6,5.745,19.8,19.8,0,0,0,5.951-3.611" transform="translate(-37.193 -22.084)" fill="#ff4700"/>
      <path id="Trazado_512" data-name="Trazado 512" d="M173.424,124.9A25.24,25.24,0,0,1,177,119.3c2.884-3.167,6-6.158,9.121-9.147,2.04-1.777,4.08-3.552,6.09-5.536a39.775,39.775,0,0,0-2.142-11.973c-.5-2.045-1.21-4.061-1.714-6.106a6.771,6.771,0,0,1,1.179-6.31l1.313-1.036a1.808,1.808,0,0,1,2.019.98,3.417,3.417,0,0,1-.924,3.732c-1.316-.445-.414-1.422-.912-1.985l-.613.088c-1.163,2.074-.864,4.148-.361,6.192.443,1.631,1.061,3.023,1.5,4.653l2.427,9.6a7.793,7.793,0,0,0,1.954-.916c4.635-4.056,9.27-8.111,13.934-11.959a7.971,7.971,0,0,1,2.07-1.569c.733.742.384,1.215.035,1.689a31.185,31.185,0,0,0-2.943,2.753c-5.045,4.113-9.853,8.406-14.867,12.728l-.246,5.54a42.5,42.5,0,0,1-1.867,10.221,26.34,26.34,0,0,1-4.186,7.166,11.582,11.582,0,0,1-9.4,4.319c-4.588.025-6.936-3.235-5.051-7.53m15.487-1.171a35.623,35.623,0,0,0,3.525-13.212l-.01-2.963c-.788.324-1.227.177-1.4.413-4.634,4.055-9.094,7.874-12.822,12.433a18.739,18.739,0,0,0-2.733,4.205,6.173,6.173,0,0,0-.953,3.525,3.141,3.141,0,0,0,2.522,3.025,10.238,10.238,0,0,0,4.354-.2c3.8-1.182,5.891-4.024,7.517-7.223" transform="translate(-41.194 -18.865)" fill="#ff4700"/>
      <path id="Trazado_513" data-name="Trazado 513" d="M219.919,96.905l.254-2.579a32.97,32.97,0,0,1,3.619-11.108l1.078-1.213a1.23,1.23,0,0,1,.848.09,1.27,1.27,0,0,1,.324.8l-.844,1.392A33.009,33.009,0,0,0,221.578,95.4c-.424,4.3,1.451,5.72,5.451,4.508a22.235,22.235,0,0,0,7.263-4.646c3.906-3.315,7.577-6.808,11.453-10.331.758-.533,1.487-1.273,2.449-1.835.235.178.264.386.529.771-4.984,4.529-9.7,9.443-12.5,11.753a44.548,44.548,0,0,1-6.445,4.528,18.5,18.5,0,0,1-4.614,1.3c-3.066.441-5.031-1.6-5.244-4.538M228.7,72.349a.773.773,0,0,1,1.2-.384,1.8,1.8,0,0,1,.21,1.453c-.494.918-.519,2.191-2.624,2.071a18.407,18.407,0,0,1,1.218-3.14" transform="translate(-52.435 -17.121)" fill="#ff4700"/>
      <path id="Trazado_514" data-name="Trazado 514" d="M244.061,157.413a10.419,10.419,0,0,1,.19-4.473c.839-2.873,1.851-5.984,2.924-8.679a88.959,88.959,0,0,1,9.565-16.2,231.693,231.693,0,0,1,18.345-21.91c1.776-2.161,2.938-4.235,2.93-7.2-.135-5.275.141-10.608-1.832-15.617a10.154,10.154,0,0,0-1.531-3.379,2.359,2.359,0,0,0-3.481-.982,12.078,12.078,0,0,0-3.178,2.576,61.693,61.693,0,0,0-4.834,5.566c-1.775,2.161-3.378,4.086-5.182,6.04a10.429,10.429,0,0,1-3,2.338,2.744,2.744,0,0,1-3.98-1.544,13.819,13.819,0,0,1-.189-4.208,23.74,23.74,0,0,1,1.827-4.71,20.713,20.713,0,0,1,10.551-9.354,11.289,11.289,0,0,1,3.621-.945c.848.09,2.134.328,2.429.921a3.92,3.92,0,0,0,3.571,1.6,3.852,3.852,0,0,1,3.251,2.285,18.36,18.36,0,0,1,1.914,4.6,51.772,51.772,0,0,1,1.563,13.749,9.585,9.585,0,0,0,.184,2.726l3.323-3.018,18.617-18.562c.933-.77,2.041-1.776,3.179-2.576.173-.237.613-.088,1.022-.147.209,1.452-.784,1.807-1.542,2.34L283.685,99.2c-.9.976-1.806,1.955-2.912,2.96a6.112,6.112,0,0,0-1.918,4.087c-1.538,12.5-5.681,24.322-10.935,35.665a64.986,64.986,0,0,1-7.444,12.083c-1.777,2.161-3.553,4.323-6.062,5.742a14.375,14.375,0,0,1-4.933,1.982c-2.833.62-5.177-1.16-5.42-4.3m11.98-.878a37.439,37.439,0,0,0,6.492-8.559,112.52,112.52,0,0,0,14.4-39.128,18.291,18.291,0,0,0,.11-2.133c-.759.532-1.342.828-1.486,1.273A232.89,232.89,0,0,0,256.4,131.5a76.7,76.7,0,0,0-7.674,13.385,64.731,64.731,0,0,0-2.55,6.932,17.593,17.593,0,0,0-.6,4.534q-.16,5.422,4.921,3.737a15.617,15.617,0,0,0,5.542-3.55m-1.1-62.729a26.858,26.858,0,0,0,2.769-2.516c3.726-4.56,7.453-9.119,11.384-13.708-.443-1.63-1.67-1.453-2.9-1.276-5.93.854-13.039,8.019-13.838,14.062-.229,1.3-.43,2.815.8,4.119.584-.3,1.2-.384,1.781-.68" transform="translate(-58.156 -17.819)" fill="#ff4700"/>
      <path id="Trazado_515" data-name="Trazado 515" d="M316.2,87.238a21.448,21.448,0,0,1,.983-3.317l9.836-23.014q.217-.667.435-1.334c1.725.387,1.815,1.01,1.321,1.928-3.429,6.634-6.183,13.595-9.142,20.584a1.579,1.579,0,0,0-.055,1.067c1.081.267,1.37-.621,1.925-1.124l9.583-10.274a46.261,46.261,0,0,1,3.937-3.108c.932-.768,2.07-1.568,3.211-.886a3.435,3.435,0,0,1,1.53,3.379l-.164,3.2c-.085.859,0,1.482-.111,2.133.189,4.208,2.033,5.424,5.974,3.8a24.006,24.006,0,0,0,5.019-2.841c4.344-3.167,8.659-6.541,12.769-9.885a6.425,6.425,0,0,0,1.9-1.332c.908.5.762.95.414,1.423-.174.237-.524.711-.932.769-5.073,3.908-9.942,7.784-15.046,11.484a11.123,11.123,0,0,1-5.311,2.247c-3.712.322-5.557-.893-6.095-4.628a45.358,45.358,0,0,1-.133-5.274,15.1,15.1,0,0,0-.244-3.141,7.145,7.145,0,0,0-2.365.976c-1.661,1.509-3.352,2.812-4.983,4.528L320.17,85.82a32.815,32.815,0,0,1-2.709,2.931c-1.286-.238-1.376-.86-1.262-1.512" transform="translate(-75.383 -14.204)" fill="#ff4700"/>
    </g>
  </g>
</svg>
