<svg id="Grupo_552" data-name="Grupo 552" xmlns="http://www.w3.org/2000/svg" xmlns:xlink="http://www.w3.org/1999/xlink" width="243.562" height="135.762" viewBox="0 0 243.562 135.762">
  <defs>
    <clipPath id="clip-path">
      <rect id="Rectángulo_55" data-name="Rectángulo 55" width="243.562" height="135.762" fill="none"/>
    </clipPath>
  </defs>
  <g id="Grupo_551" data-name="Grupo 551" clip-path="url(#clip-path)">
    <path id="Trazado_482" data-name="Trazado 482" d="M10.483,110.881A12.026,12.026,0,0,1,.33,101.116,23.934,23.934,0,0,1,.848,91.082,55.271,55.271,0,0,1,6.085,79.1,83.745,83.745,0,0,1,29.148,53.326c.973-.684,2.173-1.037,2.842-2.582l-3.672.529a31.252,31.252,0,0,1-8.147.449l-1.65-.306c-4.6-.967-7.134-3.68-7.1-8.393a27.424,27.424,0,0,1,.982-5.574,22.269,22.269,0,0,1,3.977-7.091A54.8,54.8,0,0,1,46.608,9.707a25.649,25.649,0,0,1,8.271-.829,12.73,12.73,0,0,1,4.078,1.042,5.916,5.916,0,0,1,3.4,7.478c-.4.963-.97,1.951-1.391,2.735-3.682,5.419-8.469,9.369-13.657,13.013l-.7.1-.2-.152-.1-.71c.474-.43,1.122-.886,1.6-1.316a58.267,58.267,0,0,0,9.347-8.228,48.535,48.535,0,0,0,3.384-5.014c1.937-3.9.453-6.766-3.948-7.58a24.26,24.26,0,0,0-10.745,1A54.545,54.545,0,0,0,17.382,31.118a27.684,27.684,0,0,0-3.9,7.624,13.573,13.573,0,0,0-.807,5.549c.285,3.218,1.815,5.171,4.941,5.806a20.765,20.765,0,0,0,4.9.562c5.7-.1,11.192-1.611,16.485-3.279a7.829,7.829,0,0,1,1.9-.455c.478.837-.021,1.09-.521,1.343-14,6.906-24.614,17.488-32.845,30.987A58.237,58.237,0,0,0,2.767,89.538a27.5,27.5,0,0,0-1.494,9.45c.241,5.4,3.708,10.875,11.232,11.058a28.421,28.421,0,0,0,11.887-2.979,86.207,86.207,0,0,0,12.077-6.629c6.309-4.53,12.619-9.061,18.9-13.768L74.2,72.37a16.715,16.715,0,0,1,1.622-1.139c.379,1.394-.27,1.85-.942,2.128-2.07,1.746-4.34,3.341-6.409,5.087-6.932,5.164-13.839,10.5-20.92,15.87A141.189,141.189,0,0,1,28.59,106.463c-4.142,2.226-8.51,4.123-13.258,4.625a20.451,20.451,0,0,1-4.849-.206" transform="translate(0 -3.08)" fill="#fff"/>
    <path id="Trazado_483" data-name="Trazado 483" d="M96.52,123.446a1.026,1.026,0,0,1,.9-1.215,2.517,2.517,0,0,0,1.795-1.164l11.375-15.219c-.277-.685-.554-1.369-.858-2.231a21.421,21.421,0,0,1-.807-10.567,17.858,17.858,0,0,1,1.041-2.685s.324-.228.524-.076c.176-.025.376.127.752.253a16.943,16.943,0,0,0,.167,13.557,19.181,19.181,0,0,0,1.77-1.342c4.083-5.115,8.166-10.23,12.275-15.167a18.662,18.662,0,0,1,1.693-1.874l1.275.178c-1.766,2.609-3.81,4.532-5.453,6.761l-5.154,6.356c-1.818,2.253-3.486,4.3-5.277,6.736a4.094,4.094,0,0,0,5.028,1.448,23.3,23.3,0,0,0,4.642-2.479c3.292-1.923,6.36-4.175,9.453-6.251,1.945-1.367,4.04-2.935,6.16-4.328.325-.228.8-.658,1.348-.556.529,1.192-.345,1.318-.818,1.748L127.3,102.9a44.972,44.972,0,0,1-3.917,2.556,11.736,11.736,0,0,1-2.47,1.441c-2.793,1.671-5.916,2.3-9.272.069l-2.415,3.063c-3.162,4.078-6.3,8.331-9.459,12.408a18.758,18.758,0,0,1-1.843,2.076.792.792,0,0,1-.874.126,1.2,1.2,0,0,1-.528-1.191" transform="translate(-33.647 -29.891)" fill="#fff"/>
    <path id="Trazado_484" data-name="Trazado 484" d="M126.942,160.885a5.833,5.833,0,0,1-.182-2.508c.417-2.052.837-4.1,1.43-6.181a248.622,248.622,0,0,1,9.641-26.016,39.78,39.78,0,0,0,2.28-6.485c3.262-12.059,6.672-24.32,10.86-36.15.892-2.482,1.409-5.092,2.126-7.549a16.851,16.851,0,0,0,.619-1.9c.873-.126,1.125.38,1,.761-.171,1.292-.543,2.431-.739,3.546-1.263,3.622-2.352,7.22-3.44,10.817-2.177,7.195-4.38,14.211-6.407,21.2a5.218,5.218,0,0,0-.117,2.914,25.5,25.5,0,0,0,1.541-2.938A173.533,173.533,0,0,1,155.1,94.9a63.377,63.377,0,0,1,7.594-9.242,11.913,11.913,0,0,1,4.39-2.987c2.7-1.112,4.849.207,5.083,3.071a15.7,15.7,0,0,1-1.23,6.334c-.4.963-.769,2.1-1.439,3.647,6.292-2.173,10.7-6.249,15.763-10.78.473-.431.946-.861,1.523-.582a1.792,1.792,0,0,1-.571.988,69.219,69.219,0,0,1-16.511,11.794,20.226,20.226,0,0,0-4.065,2.758,10.856,10.856,0,0,1-4.539,3.189,2.827,2.827,0,0,1-3.3-.61,1.475,1.475,0,0,1,.218-2.205,17.5,17.5,0,0,1,4.095-1.314c3.822-.731,5.964-3.213,7.278-6.481l1.383-5.269a10.347,10.347,0,0,0-.156-2.332,1.6,1.6,0,0,0-2.154-1.32,8.394,8.394,0,0,0-2.845,1.315A47.5,47.5,0,0,0,161.41,89.1a79.982,79.982,0,0,0-10.1,14.131q-5.106,9.155-9.691,18.235a31.1,31.1,0,0,0-1.932,5.167l-7.39,26.778a55.2,55.2,0,0,1-2.181,5.927,5.658,5.658,0,0,1-1.493,2.026c-.474.43-1.575.227-1.676-.483m2.39-3.241,5.365-18.518c-.175.025-.35.05-.375-.128-3.524,7.751-6.048,16.264-5.984,20.419.422-.785.9-1.215.994-1.773m33.163-57.289c-1.4.2-2.648.2-4.044,1.669,2.15.053,3.174-.275,4.044-1.669" transform="translate(-44.17 -25.831)" fill="#fff"/>
    <path id="Trazado_485" data-name="Trazado 485" d="M216.116,98.162c-4.249.249-6.065-4.922-1.756-9.707a14.511,14.511,0,0,1,6.331-5.62,9.959,9.959,0,0,1,2.248-.5,1.648,1.648,0,0,1,1.284,2.712c-.6.81-1.545,1.671-2.317,2.506a30.144,30.144,0,0,1-6.885,4.251,2.348,2.348,0,0,0-1.719,1.7c-.419,2.052.485,3.371,2.661,3.6a15.733,15.733,0,0,0,6.867-1.895,36.184,36.184,0,0,0,5.337-3.847l7.154-6.1c2.044-1.923,3.746-1.263,1.8.1-3.639,3.24-6.182,5.417-10.021,8.505a18.441,18.441,0,0,1-8.161,4.073,14.992,14.992,0,0,1-2.823.225m4.763-11.551c.947-.86,1.945-1.366,2.09-2.836-1.326-.533-2.247.5-3.245,1.01A9.764,9.764,0,0,0,215.79,89.7a16.949,16.949,0,0,0,5.089-3.088" transform="translate(-73.89 -28.71)" fill="#fff"/>
    <path id="Trazado_486" data-name="Trazado 486" d="M242.1,97.273c-.175.025-.4-.3-.427-.482a4.756,4.756,0,0,1,.32-1.495c2.506-6.155,4.985-12.488,7.464-18.821.448-.608.67-1.546,1.545-1.671.175-.025.2.152.374.127l.051.355c-1.958,4.99-3.943,9.8-6.077,14.819,1.126.38,1.2-.354,1.5-.759l6.848-8.229a22.92,22.92,0,0,1,4.188-3.138c2.146-1.215,3.421-1.037,5.1.714l.6.456c1.982,2.612,4.508,2.792,7.2,1.679a51,51,0,0,0,7.013-3.365c.525-.076.849-.3,1.2-.354.8.61.328,1.039,0,1.267a31.065,31.065,0,0,1-8.387,3.743c-3.1.808-5.847.3-8.006-2.287-1.355-1.978-2.78-1.954-4.525-.435A37.72,37.72,0,0,0,253,83.751c-2.863,3.671-5.525,7.5-8.213,11.143l-2.142,2.481a.86.86,0,0,1-.55-.1" transform="translate(-84.274 -26.084)" fill="#fff"/>
    <path id="Trazado_487" data-name="Trazado 487" d="M332.472,11.59a3.071,3.071,0,0,1,0,1.267c-.869,1.393-2.866,2.406-5.263,3.113a10.2,10.2,0,0,1,1.369-1.646,9.747,9.747,0,0,0,1.272-1.089c-.128-.886-.479-.836-1-.761l-5.6.806c-5.4.958-10.592,2.068-16.013,2.849a5.506,5.506,0,0,0-3.567,2.5L288.661,44.518a33.012,33.012,0,0,0-2.091,2.836A13.5,13.5,0,0,0,285,50.115a271.515,271.515,0,0,0-8.69,26.421c-2.446,9.044-4.692,18.241-7.139,27.284a8.11,8.11,0,0,1-.619,1.9c-.427-.481-.827-.786-.853-.964a15.908,15.908,0,0,1,.491-2.786c3.036-12.389,6.271-24.625,10.032-36.937,4.828-14.819,11.157-29.13,17.886-43.137l1.191-2.888c.175-.025-.025-.177-.076-.531-3.548.148-7.145,1.209-10.592,2.068-3.621.884-7.268,1.59-11.039,2.677L265.16,26.355c-3.247,1.01-6.591,2.578-9.986,3.792-.029-1.445.67-1.546.995-1.773,3.895-1.465,7.588-3.084,11.359-4.17A231.945,231.945,0,0,1,296.3,16.98a5.5,5.5,0,0,0,4.041-2.935A97.791,97.791,0,0,1,306.9,3.864,15.249,15.249,0,0,1,310.668.244a1.491,1.491,0,0,1,1.224-.176,2.438,2.438,0,0,1,.578,1.547,21.285,21.285,0,0,1-1.19,2.888l-4.2,8.029-.819,1.747c.828.786,1.676.483,2.525.18,5.421-.781,10.791-1.916,16.362-2.9L329,11a6.188,6.188,0,0,1,3.476.586m-30.024,5.954a2.834,2.834,0,0,0-3.493,1.77c-2.484,5.066-4.767,10.284-7.251,15.35a16.454,16.454,0,0,1-1.066,2.509c.2.151.226.329.4.3a14.8,14.8,0,0,1,1.766-2.608l9.123-15.982c.325-.227.423-.785.521-1.342m2.188-3.394c1.815-3.52,3.8-7.066,5.59-10.764a1.361,1.361,0,0,0,.048-.913c-3.042,2.43-7.445,9.04-8.832,13.043a2.353,2.353,0,0,0,3.195-1.366" transform="translate(-88.982 0)" fill="#fff"/>
    <path id="Trazado_488" data-name="Trazado 488" d="M295.013,98.507a21.6,21.6,0,0,1,3.059-4.787c2.466-2.709,5.133-5.266,7.8-7.823,1.745-1.519,3.49-3.038,5.209-4.734a34.039,34.039,0,0,0-1.832-10.239c-.43-1.749-1.035-3.473-1.466-5.221a5.791,5.791,0,0,1,1.008-5.4l1.122-.886a1.546,1.546,0,0,1,1.727.839,2.924,2.924,0,0,1-.79,3.191c-1.125-.381-.354-1.217-.78-1.7l-.524.076a6.865,6.865,0,0,0-.309,5.3c.379,1.394.907,2.586,1.287,3.98l2.075,8.211a6.647,6.647,0,0,0,1.672-.784c3.964-3.468,7.927-6.936,11.915-10.227a6.82,6.82,0,0,1,1.771-1.342c.627.635.328,1.039.03,1.445a26.84,26.84,0,0,0-2.517,2.354c-4.313,3.518-8.426,7.189-12.714,10.886l-.21,4.737a36.322,36.322,0,0,1-1.6,8.742,22.552,22.552,0,0,1-3.579,6.128,9.908,9.908,0,0,1-8.038,3.693c-3.924.021-5.932-2.767-4.319-6.441m13.244-1a30.463,30.463,0,0,0,3.014-11.3l-.008-2.534c-.674.278-1.049.151-1.2.353A91.725,91.725,0,0,0,299.1,94.658a16.042,16.042,0,0,0-2.337,3.6,5.28,5.28,0,0,0-.815,3.015,2.687,2.687,0,0,0,2.158,2.586,8.752,8.752,0,0,0,3.723-.174c3.246-1.011,5.038-3.441,6.43-6.177" transform="translate(-102.679 -20.699)" fill="#fff"/>
  </g>
</svg>
