<svg id="Grupo_19" data-name="Grupo 19" xmlns="http://www.w3.org/2000/svg" xmlns:xlink="http://www.w3.org/1999/xlink" width="46.557" height="58.378" viewBox="0 0 46.557 58.378">
  <defs>
    <clipPath id="clip-path">
      <path id="Trazado_33" data-name="Trazado 33" d="M0-57.45H46.557v-58.378H0Z" transform="translate(0 115.828)" fill="none"/>
    </clipPath>
  </defs>
  <g id="Grupo_18" data-name="Grupo 18" transform="translate(0 0)" clip-path="url(#clip-path)">
    <g id="Grupo_17" data-name="Grupo 17" transform="translate(1.008 1.008)">
      <path id="Trazado_32" data-name="Trazado 32" d="M-2.089-9.041a27.174,27.174,0,0,1,18.547-9.14,27.112,27.112,0,0,1,19.925,7.309M-3.867,1.874C-2.661-.12,4.4-11.4,16.389-12.409,28.795-13.454,36.879-2.757,38.182-.981M-3.426,9.443a26.254,26.254,0,0,0,4.39-4.1c2.254-2.651,2.55-4.1,4.039-6a17.5,17.5,0,0,1,9.3-5.827A17.9,17.9,0,0,1,27.74-4.048,16.918,16.918,0,0,1,35.019,9.183c.083,4.9-2.543,6.879-1.5,11.394a13.128,13.128,0,0,0,4.135,6.612M-3.6,17.62A32.4,32.4,0,0,0,4.211,9.962c2.853-3.989,3.108-6.407,6.32-8.7a12.342,12.342,0,0,1,7.637-2.4,12.167,12.167,0,0,1,9.38,5.28c4.266,6.653-2.5,13.819,1.668,21.75a14.885,14.885,0,0,0,5.176,5.464m-38.6-5.991A48.158,48.158,0,0,0,10.007,11.875C12.019,8.9,13.763,5.447,17.113,5A6.612,6.612,0,0,1,23.6,8.309c.9,1.831.551,4.16-1.5,7.917-4.3,7.9-11.841,14.25-18.251,18.622M-2.02,31.363A70.983,70.983,0,0,0,11.5,19.792a70.271,70.271,0,0,0,6.672-8.641M38.182,2.92a25.26,25.26,0,0,1,.793,18.354M22.819,23.535a9.666,9.666,0,0,0-.441,6.264,9.992,9.992,0,0,0,4.914,6m-17.9.867a16.766,16.766,0,0,1,3.074-2.438c1.654-1.018,2.757-1.722,3.949-1.564,1.826.239,3.343,2.514,3.949,5.465" transform="translate(4.212 18.229)" fill="none" stroke="#fff" stroke-linecap="round" stroke-width="2.5"/>
    </g>
  </g>
</svg>
