<svg xmlns="http://www.w3.org/2000/svg" width="39" height="39" viewBox="0 0 39 39">
  <g id="Grupo_865" data-name="Grupo 865" transform="translate(-1407 -435)">
    <circle id="Elipse_35" data-name="Elipse 35" cx="19.5" cy="19.5" r="19.5" transform="translate(1407 435)"/>
    <g id="Grupo_144" data-name="Grupo 144" transform="translate(1416.004 444.003)">
      <path id="Trazado_234" data-name="Trazado 234" d="M95.521,555.011H86.469a5.987,5.987,0,0,1-5.98-5.98v-9.052a5.987,5.987,0,0,1,5.98-5.98h9.051a5.987,5.987,0,0,1,5.981,5.98v9.052A5.987,5.987,0,0,1,95.521,555.011ZM86.469,535.8a4.184,4.184,0,0,0-4.179,4.179v9.052a4.184,4.184,0,0,0,4.179,4.179h9.051a4.184,4.184,0,0,0,4.179-4.179v-9.052a4.184,4.184,0,0,0-4.179-4.179Z" transform="translate(-80.489 -533.999)" fill="#fff"/>
    </g>
    <path id="Trazado_235" data-name="Trazado 235" d="M120.1,578.99a5.38,5.38,0,1,1,5.38-5.38A5.386,5.386,0,0,1,120.1,578.99Zm0-8.959a3.579,3.579,0,1,0,3.579,3.579A3.583,3.583,0,0,0,120.1,570.03Z" transform="translate(1306.41 -119.1)" fill="#fff"/>
  </g>
</svg>
