<svg id="Grupo_4" data-name="Grupo 4" xmlns="http://www.w3.org/2000/svg" xmlns:xlink="http://www.w3.org/1999/xlink" width="79.213" height="27.905" viewBox="0 0 79.213 27.905">
  <defs>
    <clipPath id="clip-path">
      <rect id="Rectángulo_2" data-name="Rectángulo 2" width="79.213" height="27.905" fill="none"/>
    </clipPath>
  </defs>
  <g id="Grupo_3" data-name="Grupo 3" clip-path="url(#clip-path)">
    <path id="Trazado_22" data-name="Trazado 22" d="M6.03,0H.049L0,20.93c-.012,4.5,2.835,6.964,6.7,6.975a21.883,21.883,0,0,0,4.754-.826V23.3a15.12,15.12,0,0,1-3.332-.231c-1.268-.4-2.149-1.149-2.143-3.141L6,11.309l5.746.014.012-4.183L6.016,7.126Z" transform="translate(0)" fill="#fff"/>
    <path id="Trazado_23" data-name="Trazado 23" d="M92.937,12.982A6.092,6.092,0,0,0,97.71,6.94C97.721,2.692,93.954.049,87.9.033L75.237,0l-.071,27.558H88.26c6.37.017,10.388-2.882,10.4-7.6a6.72,6.72,0,0,0-5.722-6.976m-11.5-7.894,6.134.016c2.358-.032,3.771,1.072,3.767,2.961,0,1.926-1.424,3.063-3.782,3.057l-6.134-.015Zm6.089,17.4-6.133-.015.017-6.529,6.133.015c2.909-.031,4.716,1.193,4.711,3.2-.006,2.123-1.819,3.339-4.728,3.331" transform="translate(-58.166 -0.001)" fill="#fff"/>
    <path id="Trazado_24" data-name="Trazado 24" d="M207.359,16.28l13.239.034.012-5.146-13.239-.034.015-5.972,14.731.039.014-5.2h-21.01V27.564h21.373l.012-5.155-15.165-.038Z" transform="translate(-155.634 0)" fill="#fff"/>
    <path id="Trazado_25" data-name="Trazado 25" d="M324.559,94.424a3.275,3.275,0,1,0,3.267,3.292,3.221,3.221,0,0,0-3.267-3.292m-.014,5.914a2.646,2.646,0,1,1,2.627-2.624,2.6,2.6,0,0,1-2.627,2.624" transform="translate(-248.613 -73.068)" fill="#fff"/>
    <path id="Trazado_26" data-name="Trazado 26" d="M333.093,102.852c0-.6-.491-1-1.226-1l-1.392,0-.008,3.006.655,0,0-.964h.491l.847.966.786,0-.93-1.032a1.012,1.012,0,0,0,.776-.978m-1.233.453-.735,0,0-.864.735,0c.341,0,.569.165.569.425s-.23.44-.571.439" transform="translate(-255.726 -78.814)" fill="#fff"/>
  </g>
</svg>
