<svg id="Grupo_550" data-name="Grupo 550" xmlns="http://www.w3.org/2000/svg" xmlns:xlink="http://www.w3.org/1999/xlink" width="325.828" height="93.984" viewBox="0 0 325.828 93.984">
  <defs>
    <clipPath id="clip-path">
      <rect id="Rectángulo_54" data-name="Rectángulo 54" width="325.828" height="93.984" fill="none"/>
    </clipPath>
  </defs>
  <g id="Grupo_549" data-name="Grupo 549" clip-path="url(#clip-path)">
    <path id="Trazado_470" data-name="Trazado 470" d="M2.029,113.892a2.214,2.214,0,0,1-1.991-2.021,13.543,13.543,0,0,1,.047-2.192A105.673,105.673,0,0,1,7.852,77.595a135.3,135.3,0,0,1,15.4-27.112c1.63-2.177,3.514-4.27,5.381-6.482a17.676,17.676,0,0,1,1.393-1.294,1.275,1.275,0,0,1,.629.152c.119-.017.171.34.171.34-.577,1.055-1.171,1.99-1.765,2.926a.118.118,0,0,1-.1.136c-1.615-.253-2.038,1.023-2.751,1.975C13.005,65.317,4.085,84.33,1.373,105.971c-.168,1.36-.336,2.72-.386,4.064a13.186,13.186,0,0,0,.071,2.175.851.851,0,0,0,.969.832,8.5,8.5,0,0,0,3.008-.19q3.874-.923,7.7-2.2c6.762-1.945,13.508-4.01,20.288-5.837a32.363,32.363,0,0,1,8.888-1.522,2.828,2.828,0,0,0,.986.1l.069.476c-.969.018-1.921.156-2.771.156a66.778,66.778,0,0,0-9.653,2.119c-7.561,2.3-15.241,4.624-22.82,6.807a26.113,26.113,0,0,1-4.249.855,5.851,5.851,0,0,1-1.444.086" transform="translate(0 -19.925)" fill="#fff"/>
    <path id="Trazado_471" data-name="Trazado 471" d="M74.462,140.619c-2.89.173-4.117-3.293-1.18-6.509a9.885,9.885,0,0,1,4.313-3.778,6.847,6.847,0,0,1,1.529-.341,1.1,1.1,0,0,1,.869,1.817c-.408.545-1.053,1.123-1.579,1.685a20.676,20.676,0,0,1-4.688,2.861,1.6,1.6,0,0,0-1.172,1.14,1.81,1.81,0,0,0,1.805,2.412,10.859,10.859,0,0,0,4.673-1.28,24.716,24.716,0,0,0,3.634-2.588l4.874-4.1c1.393-1.294,2.548-.852,1.224.067-2.479,2.178-4.211,3.642-6.827,5.719a12.662,12.662,0,0,1-5.555,2.743,10.332,10.332,0,0,1-1.92.155m3.255-7.755c.644-.579,1.324-.92,1.425-1.905-.9-.356-1.529.341-2.209.683a6.607,6.607,0,0,0-2.681,3.3,11.626,11.626,0,0,0,3.465-2.078" transform="translate(-33.406 -60.651)" fill="#fff"/>
    <path id="Trazado_472" data-name="Trazado 472" d="M95.366,136a7.4,7.4,0,0,1,.594-1.785,19.463,19.463,0,0,1,7.4-7.624,10.214,10.214,0,0,1,2.548-.852,1.76,1.76,0,0,1,1.805,2.411l-1.306,3.588c-.237.884-.474,1.768.36,2.5,1.225.916,5.488-1.519,10.6-4.806,1.545-1.073,3.006-1.89,4.688-2.861,1.121-.648,3.109-1.177,1.206-.053-2.887,1.873-5.877,3.882-8.9,5.654-2.906,1.754-5.148,3.048-7.221,2.982a1.9,1.9,0,0,1-1.735-1.936,13.256,13.256,0,0,1,.082-1.954c-.629-.153-.918.375-1.121.647a30.034,30.034,0,0,1-5.451,4.307,16.71,16.71,0,0,1-2.158,1.04,1.084,1.084,0,0,1-1.4-1.257m11.566-9.073c-.459-.663-1.156-.441-1.734-.236a18.312,18.312,0,0,0-8.813,8.8c-.084.255.068.476.137.952,4.094-1.925,9.239-6.674,10.409-9.513" transform="translate(-44.49 -58.657)" fill="#fff"/>
    <path id="Trazado_473" data-name="Trazado 473" d="M141.2,135.864a24.412,24.412,0,0,1,.184-2.941,56.949,56.949,0,0,1,3.743-11.1c-.017-.119.22-.153.323-.289.476-.068.646.272.476.781-.779,2.176-1.8,4.387-2.439,6.666a57.49,57.49,0,0,0-1.438,6.036,3.352,3.352,0,0,0,.052,1.207,5.506,5.506,0,0,0,.918-.375,19.567,19.567,0,0,0,2.088-2.365,43.715,43.715,0,0,0,5.378-9.032,4.05,4.05,0,0,0,.694-2.772,1.914,1.914,0,0,1,.423-1.275c-.017-.119.341-.171.578-.2.136.1.408.306.425.425l-.065,2.074a2.409,2.409,0,0,0,2.142.541,21.344,21.344,0,0,0,3.773-.786l7.39-2.644a3.041,3.041,0,0,1,2.278-.206,2.162,2.162,0,0,1-1,.63c-3.347,1.211-6.575,2.4-9.94,3.5a7.868,7.868,0,0,1-5-.131,17.115,17.115,0,0,0-1.051,1.973,48.566,48.566,0,0,1-5.633,8.948,10.682,10.682,0,0,1-2.343,2.28,1.144,1.144,0,0,1-1.955-.932" transform="translate(-65.882 -55.732)" fill="#fff"/>
    <path id="Trazado_474" data-name="Trazado 474" d="M188.647,124.173c-2.889.173-4.117-3.293-1.18-6.509a9.882,9.882,0,0,1,4.313-3.778,6.871,6.871,0,0,1,1.529-.341,1.1,1.1,0,0,1,.869,1.817c-.408.545-1.053,1.123-1.579,1.685a20.676,20.676,0,0,1-4.688,2.861,1.6,1.6,0,0,0-1.172,1.14,1.81,1.81,0,0,0,1.8,2.412,10.859,10.859,0,0,0,4.673-1.28,24.774,24.774,0,0,0,3.634-2.588l4.874-4.1c1.392-1.293,2.548-.852,1.224.067-2.479,2.178-4.211,3.642-6.827,5.719a12.663,12.663,0,0,1-5.556,2.743,10.332,10.332,0,0,1-1.92.155m3.254-7.755c.645-.578,1.325-.92,1.426-1.905-.9-.356-1.529.341-2.209.683a6.609,6.609,0,0,0-2.682,3.3,11.61,11.61,0,0,0,3.466-2.078" transform="translate(-86.683 -52.978)" fill="#fff"/>
    <path id="Trazado_475" data-name="Trazado 475" d="M275.227,105.57l.151-1.479a18.813,18.813,0,0,1,2.118-6.377l.628-.7a.482.482,0,0,1,.681.509l-.493.8a18.829,18.829,0,0,0-2.117,6.377c-.252,2.464.837,3.279,3.165,2.58a13.019,13.019,0,0,0,4.229-2.673c2.275-1.906,4.415-3.914,6.673-5.94.442-.307.866-.732,1.427-1.056.136.1.153.221.307.442-2.9,2.6-5.655,5.429-7.285,6.756a25.887,25.887,0,0,1-3.753,2.605,10.909,10.909,0,0,1-2.684.751,2.569,2.569,0,0,1-3.046-2.6m5.134-14.1a.453.453,0,0,1,.7-.222,1.013,1.013,0,0,1,.119.833c-.288.527-.3,1.258-1.528,1.192a10.459,10.459,0,0,1,.712-1.8" transform="translate(-128.416 -42.534)" fill="#fff"/>
    <path id="Trazado_476" data-name="Trazado 476" d="M322.355,46.765a2.054,2.054,0,0,1,0,.85,6.339,6.339,0,0,1-3.585,2.095,6.925,6.925,0,0,1,.934-1.105,6.67,6.67,0,0,0,.866-.732c-.086-.595-.323-.561-.68-.509l-3.808.548c-3.67.65-7.2,1.4-10.893,1.933a3.768,3.768,0,0,0-2.428,1.686L292.515,68.913a22.112,22.112,0,0,0-1.425,1.905,9.077,9.077,0,0,0-1.069,1.854,180.815,180.815,0,0,0-5.946,17.736c-1.676,6.071-3.215,12.242-4.891,18.313a5.493,5.493,0,0,1-.424,1.275c-.29-.323-.562-.527-.579-.645a10.571,10.571,0,0,1,.337-1.87c2.082-8.314,4.3-16.527,6.873-24.791a235.531,235.531,0,0,1,12.222-28.961l.814-1.938c.119-.017-.018-.119-.052-.357a37.55,37.55,0,0,0-7.205,1.4c-2.464.6-4.944,1.076-7.511,1.81l-7.1,2.116c-2.209.683-4.486,1.739-6.8,2.558-.018-.969.458-1.037.679-1.191,2.651-.989,5.165-2.08,7.731-2.813a159.881,159.881,0,0,1,19.575-4.884,3.761,3.761,0,0,0,2.753-1.975,65.739,65.739,0,0,1,4.479-6.838,10.361,10.361,0,0,1,2.564-2.433,1.028,1.028,0,0,1,.832-.121,1.618,1.618,0,0,1,.393,1.037,14.449,14.449,0,0,1-.814,1.938l-2.867,5.392-.56,1.174c.562.526,1.139.322,1.717.117,3.688-.531,7.341-1.3,11.131-1.967l2.617-.377a4.253,4.253,0,0,1,2.364.388M301.928,50.8a1.941,1.941,0,0,0-2.377,1.193c-1.7,3.4-3.256,6.9-4.952,10.306a11.026,11.026,0,0,1-.729,1.684c.136.1.153.221.271.2a9.962,9.962,0,0,1,1.2-1.753L301.573,51.7c.221-.153.288-.526.355-.9m1.494-2.279c1.238-2.364,2.6-4.745,3.817-7.229a.9.9,0,0,0,.033-.612,25.036,25.036,0,0,0-6.024,8.761,1.613,1.613,0,0,0,2.174-.92" transform="translate(-125.866 -18.206)" fill="#fff"/>
    <path id="Trazado_477" data-name="Trazado 477" d="M357.984,63.217a4.151,4.151,0,0,1-3.331-3.958,12.839,12.839,0,0,1,.588-4.819,60.084,60.084,0,0,1,5.286-13.286,125.891,125.891,0,0,1,9.893-15.528c.484-.76,1.283-1.368,1.241-2.348-.677-.593-1.409-.191-1.988-.108-7.163,1.623-14.4,2.764-21.17,5.712a3.924,3.924,0,0,1-1.064.153,3.231,3.231,0,0,1-.373-.538l-.042-.29a4.1,4.1,0,0,1,1.71-1.134,70.29,70.29,0,0,1,9.632-2.965c4.113-.888,8.211-1.873,12.352-2.568a8.461,8.461,0,0,0,5.435-3.347,83.678,83.678,0,0,1,10.6-10.6c.62-.484,1.242-.968,1.959-1.465.358-.249.814-.512,1.173-.07.457.427.029.883-.33,1.132a77.1,77.1,0,0,0-6.73,6,67.987,67.987,0,0,0-5.639,6.039c.636.994,1.367.592,1.933.412,5.853-1.139,11.579-2.457,17.5-3.112,1.16-.167,2.319-.334,3.492-.4a1.342,1.342,0,0,1,.842.372c.111.083.181.566.084.58a3.462,3.462,0,0,1-1.311.485c-7.288.753-14.409,2.667-21.642,3.807a7.042,7.042,0,0,0-5.076,3.1c-3.529,4.946-6.947,9.975-9.95,15.141a62.74,62.74,0,0,0-6.4,15.124,10.833,10.833,0,0,0-.547,4.418,2.774,2.774,0,0,0,2.349,2.62,5.927,5.927,0,0,0,4.073-.488,31.191,31.191,0,0,0,7.711-4.661c2.828-2.28,5.544-4.644,8.261-7.009,1.573-1.41,3.158-2.723,4.745-4.036a2.053,2.053,0,0,1,1.6-.526.409.409,0,0,1,.373.538c-.069.207-.123.511-.317.539-4.193,3.069-7.888,6.856-11.847,10.188a45.8,45.8,0,0,1-7.808,5.365,12.566,12.566,0,0,1-4.5,1.634,6.469,6.469,0,0,1-2.774-.094" transform="translate(-161.916 -2.715)" fill="#fff"/>
    <path id="Trazado_478" data-name="Trazado 478" d="M408.164,87.484a11.188,11.188,0,0,1-.348-3.106c1.025-8.629,5.242-14.957,13.286-18.68a10.306,10.306,0,0,1,6.819-.587,7.237,7.237,0,0,1,1.256.509,1.18,1.18,0,0,1,.429.924c-.055.3-.427.456-.828.415-.511-.124-1.036-.344-1.643-.454a10.685,10.685,0,0,0-1.712-.246,12.983,12.983,0,0,0-1.933.278,42.1,42.1,0,0,0,.254,4.5c.167,1.85,1.176,2.691,3.054,2.716a14.6,14.6,0,0,0,6.031-1.263l8.223-3.847c2.842-1.494,3.933-.764,2.043.5-3.311,1.66-6.732,3.238-10.058,4.8a15.324,15.324,0,0,1-5.451,1.179c-7.289.754-4.413-8.043-7.316.561a45.668,45.668,0,0,1-3.841,9.627,14.11,14.11,0,0,1-3,3.786c-2.125,1.687-4.4.93-5.262-1.609m6.5-2.12a35.489,35.489,0,0,0,3.5-7.9c1.486-4.75,5.164-11.394,1.6-9.4-5.642,3.278-8.866,8.279-10.226,14.589a12.338,12.338,0,0,0-.19,2.789,3.3,3.3,0,0,0,.624,2.277,1.583,1.583,0,0,0,2.14.481,10.045,10.045,0,0,0,2.551-2.833" transform="translate(-190.276 -30.223)" fill="#fff"/>
    <path id="Trazado_479" data-name="Trazado 479" d="M535.492,16.068a2.037,2.037,0,0,1,0,.85,6.333,6.333,0,0,1-3.584,2.094,6.928,6.928,0,0,1,.933-1.105,6.646,6.646,0,0,0,.867-.732c-.086-.595-.324-.56-.681-.509l-3.808.548c-3.67.65-7.2,1.4-10.892,1.933a3.76,3.76,0,0,0-2.428,1.686L505.652,38.216a22.507,22.507,0,0,0-1.425,1.905,9.079,9.079,0,0,0-1.068,1.854,180.742,180.742,0,0,0-5.946,17.736c-1.675,6.07-3.215,12.242-4.891,18.312A5.455,5.455,0,0,1,491.9,79.3c-.289-.323-.562-.526-.578-.645a10.527,10.527,0,0,1,.337-1.87c2.081-8.314,4.3-16.527,6.872-24.791a235.54,235.54,0,0,1,12.223-28.961l.814-1.939c.119-.017-.018-.119-.052-.357a37.55,37.55,0,0,0-7.205,1.4c-2.464.6-4.945,1.076-7.512,1.81l-7.1,2.116c-2.209.682-4.487,1.739-6.8,2.557-.017-.969.459-1.037.68-1.19,2.65-.989,5.165-2.08,7.731-2.814a159.853,159.853,0,0,1,19.575-4.883,3.766,3.766,0,0,0,2.753-1.975,65.6,65.6,0,0,1,4.479-6.838,10.359,10.359,0,0,1,2.564-2.433,1.025,1.025,0,0,1,.832-.12A1.622,1.622,0,0,1,521.9,9.4a14.383,14.383,0,0,1-.814,1.939l-2.867,5.392-.56,1.173c.563.526,1.139.322,1.717.117,3.688-.531,7.342-1.3,11.131-1.967l2.617-.377a4.248,4.248,0,0,1,2.364.388M515.065,20.1a1.942,1.942,0,0,0-2.378,1.193c-1.7,3.4-3.256,6.905-4.952,10.307a11.014,11.014,0,0,1-.728,1.683c.137.1.153.221.271.2a10.03,10.03,0,0,1,1.206-1.753L514.71,21c.221-.153.288-.527.356-.9m1.493-2.279c1.238-2.364,2.6-4.745,3.816-7.228a.9.9,0,0,0,.034-.612,25.026,25.026,0,0,0-6.024,8.761,1.613,1.613,0,0,0,2.175-.921" transform="translate(-225.312 -3.883)" fill="#fff"/>
    <path id="Trazado_480" data-name="Trazado 480" d="M521.11,54.224a11.273,11.273,0,0,1,.456-1.887c1.9-4.524,3.78-9.166,5.662-13.809,1.509-3.86,3.289-7.517,5.052-11.292A109.359,109.359,0,0,1,542.611,9.6,45.454,45.454,0,0,1,548.7,2.162,19.119,19.119,0,0,1,551.1.239c1.24-.664,2.448.133,2.161,1.511a22.644,22.644,0,0,1-.88,3.162,66.881,66.881,0,0,1-9.364,15.921,164.36,164.36,0,0,1-12.257,13.544,9.029,9.029,0,0,0-2.189,3.351c-1.17,2.84-2.339,5.68-3.645,8.418a10.578,10.578,0,0,1-.542,1.292l.034.238.051.357a.118.118,0,0,0,.1-.136l.509-.68a19.109,19.109,0,0,0,1.323-1.77c1.154-1.259,2.173-2.62,3.429-4.015,1.172-1.14,3.431-2.316,4.59-.175a10.2,10.2,0,0,1,.767,1.954,20.829,20.829,0,0,0,1.193,2.378,2.044,2.044,0,0,0,2.551.847,6.945,6.945,0,0,0,2.377-1.193,17.975,17.975,0,0,0,2.616-2.077c2.9-2.6,5.671-5.31,8.557-8.033a17.745,17.745,0,0,1,1.392-1.294.515.515,0,0,1,.239.816l-.849.851c-2.989,2.859-5.977,5.718-9.085,8.594a23.541,23.541,0,0,1-2.292,1.787l-1.563.954c-2.651.989-4.2.362-5.408-2.136-.358-.8-.614-1.733-1.109-2.633-.6-1.614-1.226-1.766-2.635-.592a17.753,17.753,0,0,0-3.26,3.505c-1.714,2.433-3.173,4.95-4.751,7.485-.373.782-.763,1.446-1.154,2.109-.1.137-.458.188-.7.222-.135-.1-.306-.442-.2-.578M532.3,31.6c3.7-3.812,7.13-7.827,10.423-11.945a59.106,59.106,0,0,0,5.685-8.59c1.238-2.364,2.221-4.813,3.34-7.16A5.5,5.5,0,0,0,552.29.917a3.782,3.782,0,0,0-2.684,1.6,65.558,65.558,0,0,0-4.686,5.411,116.627,116.627,0,0,0-13.588,23.693c-.2.272-.407.545.018.969a6.583,6.583,0,0,1,.951-.987" transform="translate(-243.127 0)" fill="#fff"/>
    <path id="Trazado_481" data-name="Trazado 481" d="M580.419,67.75c-2.89.173-4.117-3.293-1.18-6.509a9.884,9.884,0,0,1,4.313-3.778,6.85,6.85,0,0,1,1.53-.341,1.1,1.1,0,0,1,.869,1.817c-.408.545-1.054,1.123-1.579,1.685a20.663,20.663,0,0,1-4.688,2.861,1.6,1.6,0,0,0-1.171,1.14,1.81,1.81,0,0,0,1.8,2.412,10.861,10.861,0,0,0,4.673-1.28,24.773,24.773,0,0,0,3.634-2.588l4.874-4.1c1.392-1.294,2.548-.853,1.224.067-2.479,2.178-4.211,3.642-6.827,5.719a12.664,12.664,0,0,1-5.556,2.743,10.377,10.377,0,0,1-1.92.155M583.674,60c.645-.579,1.325-.92,1.426-1.905-.9-.356-1.529.341-2.209.683a6.607,6.607,0,0,0-2.682,3.3A11.616,11.616,0,0,0,583.674,60" transform="translate(-269.477 -26.652)" fill="#fff"/>
  </g>
</svg>
