<svg id="Grupo_697" data-name="Grupo 697" xmlns="http://www.w3.org/2000/svg" xmlns:xlink="http://www.w3.org/1999/xlink" width="56.697" height="53.309" viewBox="0 0 56.697 53.309">
  <defs>
    <clipPath id="clip-path">
      <path id="Trazado_37" data-name="Trazado 37" d="M0-46.633H56.7V-99.942H0Z" transform="translate(0 99.942)" fill="#fff"/>
    </clipPath>
  </defs>
  <g id="Grupo_24" data-name="Grupo 24" transform="translate(0 0)" clip-path="url(#clip-path)">
    <g id="Grupo_23" data-name="Grupo 23" transform="translate(0 0)">
      <path id="Trazado_36" data-name="Trazado 36" d="M-46.477-25.834a26.27,26.27,0,0,0,.177-2.878A26.685,26.685,0,0,0-72.953-55.366,26.686,26.686,0,0,0-99.608-28.711,26.685,26.685,0,0,0-72.953-2.057,26.636,26.636,0,0,0-50.109-15.042a5.635,5.635,0,0,0,1.49.2,5.714,5.714,0,0,0,5.708-5.708,5.717,5.717,0,0,0-3.566-5.288M-75.556-53.27A29.52,29.52,0,0,0-83.7-42.675a29.519,29.519,0,0,1-6.732-3.469A24.642,24.642,0,0,1-75.556-53.27m-16.21,8.585a31.591,31.591,0,0,0,7.3,3.812,33.341,33.341,0,0,0-2.175,9.5H-97.5a24.6,24.6,0,0,1,5.739-13.314M-84.93-19.61a3.755,3.755,0,0,1-3.75-3.75,3.754,3.754,0,0,1,3.75-3.75,3.754,3.754,0,0,1,3.75,3.75,3.755,3.755,0,0,1-3.75,3.75m-12.72-9.1c0-.235.012-.469.019-.7h10.9c0,.217-.018.432-.021.648a5.714,5.714,0,0,0-3.882,5.4,5.714,5.714,0,0,0,5.708,5.708c.026,0,.054,0,.081,0,.125.361.236.732.376,1.09a31.519,31.519,0,0,0-7.307,3.814,24.591,24.591,0,0,1-5.87-15.959m7.224,17.437a29.592,29.592,0,0,1,6.731-3.469,29.513,29.513,0,0,0,8.139,10.59,24.645,24.645,0,0,1-14.87-7.121m16.493,5.915a27.394,27.394,0,0,1-7.894-10,31.538,31.538,0,0,1,7.894-1.254Zm0-13.23a33.4,33.4,0,0,0-8.683,1.4c-.109-.275-.2-.562-.293-.843a5.714,5.714,0,0,0,3.687-5.331,5.71,5.71,0,0,0-5.568-5.7c0-.118.008-.235.011-.352h10.846Zm0-12.782H-84.674a31.348,31.348,0,0,1,2.065-8.881,33.536,33.536,0,0,0,8.676,1.4v7.479Zm0-9.439a31.514,31.514,0,0,1-7.894-1.254,27.387,27.387,0,0,1,7.894-10ZM-48.4-31.371H-59.268a33.005,33.005,0,0,0-.851-5.231,5.7,5.7,0,0,0,2.53-4.739,5.731,5.731,0,0,0-.126-1.188,30.408,30.408,0,0,0,3.574-2.155A24.586,24.586,0,0,1-48.4-31.371M-67.047-41.34a3.754,3.754,0,0,1,3.75-3.75A3.743,3.743,0,0,1-60.243-43.5c-.018.008-.034.018-.052.025a2.531,2.531,0,0,1,.2.214,3.7,3.7,0,0,1,.548,1.922,3.754,3.754,0,0,1-3.75,3.75,3.753,3.753,0,0,1-3.75-3.75m11.568-4.8a27.471,27.471,0,0,1-2.985,1.782A5.7,5.7,0,0,0-63.3-47.049a5.674,5.674,0,0,0-1.317.161,28.351,28.351,0,0,0-5.738-6.38,24.645,24.645,0,0,1,14.874,7.124m-16.495-5.917a26.139,26.139,0,0,1,5.522,5.969A5.7,5.7,0,0,0-69-41.34c0,.094.01.184.014.273-.984.129-1.976.226-2.982.257V-52.062Zm0,13.211a32.58,32.58,0,0,0,3.406-.3A5.715,5.715,0,0,0-63.3-35.632a5.677,5.677,0,0,0,1.342-.166,29.809,29.809,0,0,1,.722,4.427H-71.974Zm0,9.437h10.846c.006.235.02.467.02.7A31.529,31.529,0,0,1-63.3-17.168a33.46,33.46,0,0,0-8.676-1.4V-29.413Zm0,12.8a31.562,31.562,0,0,1,7.894,1.254,27.394,27.394,0,0,1-7.894,10Zm1.623,12.459a29.491,29.491,0,0,0,8.14-10.594,29.489,29.489,0,0,1,6.73,3.469A24.644,24.644,0,0,1-70.351-4.153m16.207-8.583a31.515,31.515,0,0,0-7.3-3.814A33.44,33.44,0,0,0-59.15-28.712c0-.235-.016-.467-.021-.7h10.895c.007.233.018.467.018.7a22.583,22.583,0,0,1-.154,2.469c-.068,0-.137-.012-.206-.012a5.714,5.714,0,0,0-5.708,5.708,5.7,5.7,0,0,0,2.416,4.657,23.817,23.817,0,0,1-2.232,3.155m5.524-4.059a3.754,3.754,0,0,1-3.75-3.75,3.755,3.755,0,0,1,3.75-3.75,3.755,3.755,0,0,1,3.75,3.75,3.754,3.754,0,0,1-3.75,3.75" transform="translate(99.608 55.366)" fill="#fff"/>
    </g>
  </g>
</svg>
