<svg id="Grupo_529" data-name="Grupo 529" xmlns="http://www.w3.org/2000/svg" xmlns:xlink="http://www.w3.org/1999/xlink" width="175.927" height="165.415" viewBox="0 0 175.927 165.415">
  <defs>
    <clipPath id="clip-path">
      <path id="Trazado_37" data-name="Trazado 37" d="M0,65.473H175.927V-99.942H0Z" transform="translate(0 99.942)" fill="#ff4700" stroke="#000" stroke-width="2"/>
    </clipPath>
  </defs>
  <g id="Grupo_24" data-name="Grupo 24" transform="translate(0 0)" clip-path="url(#clip-path)">
    <g id="Grupo_23" data-name="Grupo 23" transform="translate(0 0)">
      <path id="Trazado_36" data-name="Trazado 36" d="M65.254,36.271a81.516,81.516,0,0,0,.549-8.929A82.8,82.8,0,0,0-16.9-55.366,82.8,82.8,0,0,0-99.608,27.341,82.8,82.8,0,0,0-16.9,110.049,82.651,82.651,0,0,0,53.983,69.757a17.484,17.484,0,0,0,4.624.636,17.708,17.708,0,0,0,6.647-34.122m-90.23-85.132A91.6,91.6,0,0,0-50.238-15.988,91.6,91.6,0,0,1-71.125-26.753,76.463,76.463,0,0,1-24.976-48.861m-50.3,26.639A98.024,98.024,0,0,0-52.619-10.4a103.454,103.454,0,0,0-6.748,29.486H-93.082A76.329,76.329,0,0,1-75.273-22.222m21.21,77.8A11.651,11.651,0,0,1-65.7,43.945,11.648,11.648,0,0,1-54.063,32.308,11.649,11.649,0,0,1-42.427,43.945,11.651,11.651,0,0,1-54.063,55.581M-93.532,27.341c0-.728.036-1.455.058-2.178h33.809c-.015.672-.055,1.339-.065,2.011A17.73,17.73,0,0,0-71.776,43.945,17.731,17.731,0,0,0-54.063,61.657c.081,0,.167-.012.252-.012.389,1.121.733,2.272,1.167,3.381A97.8,97.8,0,0,0-75.318,76.861,76.3,76.3,0,0,1-93.532,27.341m22.415,54.107A91.821,91.821,0,0,1-50.231,70.684a91.577,91.577,0,0,0,25.255,32.86,76.471,76.471,0,0,1-46.141-22.1M-19.939,99.8a85,85,0,0,1-24.5-31.023,97.859,97.859,0,0,1,24.5-3.891Zm0-41.052a103.643,103.643,0,0,0-26.942,4.356c-.338-.854-.607-1.744-.909-2.615A17.731,17.731,0,0,0-36.348,43.949,17.717,17.717,0,0,0-53.626,26.261c.015-.367.025-.73.033-1.091h33.653Zm0-39.663H-53.27A97.27,97.27,0,0,1-46.863-8.469a104.06,104.06,0,0,0,26.922,4.35V19.087Zm0-29.289a97.785,97.785,0,0,1-24.5-3.891,84.98,84.98,0,0,1,24.5-31.017ZM59.274,19.087H25.565a102.412,102.412,0,0,0-2.642-16.23,17.7,17.7,0,0,0,7.852-14.7,17.783,17.783,0,0,0-.392-3.686,94.352,94.352,0,0,0,11.089-6.687,76.288,76.288,0,0,1,17.8,41.307M1.427-11.845A11.649,11.649,0,0,1,13.062-23.48a11.614,11.614,0,0,1,9.475,4.931c-.055.025-.106.055-.161.076a7.852,7.852,0,0,1,.619.665,11.477,11.477,0,0,1,1.7,5.963A11.649,11.649,0,0,1,13.062-.208,11.646,11.646,0,0,1,1.427-11.845M37.321-26.753a85.241,85.241,0,0,1-9.262,5.53,17.7,17.7,0,0,0-15-8.337,17.607,17.607,0,0,0-4.086.5,87.973,87.973,0,0,0-17.8-19.8A76.473,76.473,0,0,1,37.321-26.753m-51.183-18.36A81.108,81.108,0,0,1,3.274-26.592,17.7,17.7,0,0,0-4.648-11.845c0,.293.03.571.043.847-3.054.4-6.131.7-9.254.8V-45.113Zm0,40.994a101.09,101.09,0,0,0,10.57-.938A17.735,17.735,0,0,0,13.065,5.868a17.614,17.614,0,0,0,4.164-.516,92.5,92.5,0,0,1,2.239,13.736H-13.862Zm0,29.282H19.792c.018.73.063,1.45.063,2.178a97.832,97.832,0,0,1-6.793,35.817,103.825,103.825,0,0,0-26.92-4.35V25.163Zm0,39.721a97.935,97.935,0,0,1,24.5,3.891A85,85,0,0,1-13.862,99.8Zm5.036,38.66A91.509,91.509,0,0,0,16.433,70.672,91.5,91.5,0,0,1,37.318,81.435,76.468,76.468,0,0,1-8.825,103.544M41.465,76.912A97.789,97.789,0,0,0,18.817,65.078a103.761,103.761,0,0,0,7.112-37.74c0-.728-.05-1.448-.065-2.178H59.67c.022.723.055,1.45.055,2.178A70.072,70.072,0,0,1,59.248,35c-.212-.012-.425-.036-.641-.036A17.7,17.7,0,0,0,48.392,67.124a73.9,73.9,0,0,1-6.927,9.788m17.142-12.6A11.636,11.636,0,1,1,70.243,52.679,11.648,11.648,0,0,1,58.607,64.316" transform="translate(99.608 55.366)" fill="#ff4700" stroke="#000" stroke-width="2"/>
    </g>
  </g>
</svg>
