<svg id="Grupo_562" data-name="Grupo 562" xmlns="http://www.w3.org/2000/svg" xmlns:xlink="http://www.w3.org/1999/xlink" width="218.742" height="136.357" viewBox="0 0 218.742 136.357">
  <defs>
    <clipPath id="clip-path">
      <rect id="Rectángulo_61" data-name="Rectángulo 61" width="218.742" height="136.357" fill="#ff4700" stroke="#ff4700" stroke-width="0.5"/>
    </clipPath>
  </defs>
  <g id="Grupo_561" data-name="Grupo 561" clip-path="url(#clip-path)">
    <path id="Trazado_516" data-name="Trazado 516" d="M89.986,126.081a28.564,28.564,0,0,1-5.321-12.539c-2.229-10.609-1.9-21.348-.428-32.251.292-1.231.32-2.659.578-4.122-.033-.233-.3-.433-.363-.9-1.539.7-2.256,2.225-3.005,3.522-4.015,6.281-8,12.794-11.781,19.041L58.933,117.01c-2.512,3.688-5.027,7.377-7.77,11.1a25.034,25.034,0,0,1-4.9,4.983,19.57,19.57,0,0,1-4.747,2.822A6.83,6.83,0,0,1,33.4,133.28a16.37,16.37,0,0,1-1.952-5.421c-1.028-3.891-.681-7.98-.332-12.069a139.68,139.68,0,0,1,4.259-22.473c2.526-10.1,5.315-20.01,7.875-29.882,1.558-5.451,2.852-11.1,3.95-16.489a32.752,32.752,0,0,0,.863-7.014,7.342,7.342,0,0,0-.106-2.36c-.732-3.458-2.8-4.823-6.143-3.629a26.853,26.853,0,0,0-5.207,2.888,50.129,50.129,0,0,0-6.935,5.514A107.105,107.105,0,0,0,3.547,86.972,42.78,42.78,0,0,0,1.781,99.107c.207,3.058.207,3.058,1.79,5.919-1.014,1.1-1.77.731-2.362-.134a14.01,14.01,0,0,1-.9-2.961,23.872,23.872,0,0,1,.3-9.309,117.985,117.985,0,0,1,3.5-13.1A108.018,108.018,0,0,1,23.688,46.294,60.576,60.576,0,0,1,36.114,35a18.912,18.912,0,0,1,6.879-2.654c3.475-.262,5.808,1.3,6.507,4.527a23.591,23.591,0,0,1,.088,7.116c-.9,5.12-2.067,10.039-3.234,14.957-2.917,10.639-5.837,21.275-8.525,31.879-2.626,9.407-4.727,19.214-5.189,29.022-.056,2.859.346,5.652.519,8.479a11.911,11.911,0,0,0,.861,2.726c1.454,3.593,4.213,4.859,7.717,3.166a17.428,17.428,0,0,0,4.842-3.787,53.8,53.8,0,0,0,7.121-9.1c4.21-6.547,8.157-13.292,12.368-19.838,4.534-7.544,9.1-14.854,13.67-22.166a44.29,44.29,0,0,1,3.92-5.316,2.226,2.226,0,0,1,2.031-.53c.493.167.89,1.3.957,1.763a27.821,27.821,0,0,1-.314,4.322,85.1,85.1,0,0,0-1.449,19.217c.088,7.115.668,14.4,3.51,21.115a23.506,23.506,0,0,0,2.87,5.289c2.11,3.26,4.573,4.092,8.075,2.4a18.276,18.276,0,0,0,5.532-3.886,53.2,53.2,0,0,0,6.6-7.841c11.549-19.008,19.194-39.116,21.124-61.491a127.914,127.914,0,0,0-.106-23.507c-.677-6.317-2.728-12.436-4.78-18.557-1.292-4.091-3.043-8.115-4.563-12.172L124.06,0a12.648,12.648,0,0,1,1.516,2.4,114.456,114.456,0,0,1,6.985,20.852,107.434,107.434,0,0,1-.313,46.614A144.29,144.29,0,0,1,116.6,110.844c-2.089,3.39-4.21,6.547-6.561,9.737a48.773,48.773,0,0,1-6.147,6.112,14.15,14.15,0,0,1-5.043,2.39c-3.572,1.225-6.56-.007-8.864-3" transform="translate(0)" fill="#ff4700" stroke="#ff4700" stroke-width="0.5"/>
    <path id="Trazado_517" data-name="Trazado 517" d="M166.28,115.345c-5.573.327-7.957-6.457-2.3-12.736a19.046,19.046,0,0,1,8.308-7.374,13.011,13.011,0,0,1,2.95-.661,2.163,2.163,0,0,1,1.684,3.558c-.784,1.063-2.027,2.193-3.041,3.288A39.51,39.51,0,0,1,164.844,107a3.082,3.082,0,0,0-2.256,2.226c-.549,2.693.637,4.423,3.491,4.724a20.636,20.636,0,0,0,9.011-2.487,47.4,47.4,0,0,0,7-5.046l9.388-8c2.681-2.524,4.915-1.659,2.361.135-4.774,4.251-8.111,7.108-13.148,11.16a24.2,24.2,0,0,1-10.708,5.344,19.688,19.688,0,0,1-3.7.295m6.249-15.156c1.243-1.129,2.552-1.793,2.743-3.721-1.741-.7-2.949.662-4.258,1.325a12.811,12.811,0,0,0-5.162,6.446,22.216,22.216,0,0,0,6.678-4.051" transform="translate(-23.378 -13.755)" fill="#ff4700" stroke="#ff4700" stroke-width="0.5"/>
    <path id="Trazado_518" data-name="Trazado 518" d="M198.937,99.768a19.331,19.331,0,0,1-.917-9.609c.611-3.89,1.255-7.547,2.13-11.238,5.545-20.045,15.392-37.857,28.33-53.738a89.546,89.546,0,0,1,6.537-6.644,12.928,12.928,0,0,1,3.9-2.223,2.55,2.55,0,0,1,3.615,2.33,6.2,6.2,0,0,1-.414,3.624,88.269,88.269,0,0,1-3.511,9.772,134.612,134.612,0,0,1-11.612,20.2,294.17,294.17,0,0,1-23.552,30c-4.642,5.182-4.525,10.867-2.966,16.82.962,3.425,2.966,4.326,6.537,3.1l.46-.066c4.422-1.824,7.953-4.947,11.155-8.734a27.582,27.582,0,0,1-2.271-2.762c-2.965-4.324.232-9.774,4.262-11.067l1.836-.265a3.558,3.558,0,0,1,3.458,4.492,25.669,25.669,0,0,1-1.333,3.757,17.733,17.733,0,0,1-2.055,3.622c.628,1.1,1.512.732,2.167.4a61.521,61.521,0,0,0,5.96-2.522c5.206-2.888,10.411-5.776,14.991-9.762a2.883,2.883,0,0,1,1.343-.432c.229-.033.262.2.525.4a7.117,7.117,0,0,1-1.566,2.126A84.78,84.78,0,0,1,227.15,92.378a17.109,17.109,0,0,1-4.751,1.16,6.174,6.174,0,0,0-3.275,1.66c-2.06,1.96-4.35,3.952-6.64,5.945a14.929,14.929,0,0,1-6.155,2.788,6,6,0,0,1-7.392-4.162m4.986-20.677a270.729,270.729,0,0,0,24.2-32,192.085,192.085,0,0,0,9.261-17.015,35.888,35.888,0,0,0,3.023-8.276,33.926,33.926,0,0,0,.544-4.355,12.467,12.467,0,0,0-2.458.828,9.079,9.079,0,0,0-2.944,2.325,84.883,84.883,0,0,0-8.694,9.569A135.69,135.69,0,0,0,210.38,57.253a123.714,123.714,0,0,0-7.906,19.909c-.326,1-.387,2.194-.807,4.156a18.355,18.355,0,0,0,2.256-2.226m18,9.526a37.47,37.47,0,0,0,2.245-5.551,1.884,1.884,0,0,0-2.433-2.264,6.2,6.2,0,0,0-4.641,5.184,4.757,4.757,0,0,0,2.674,5.555,26.688,26.688,0,0,0,2.155-2.923" transform="translate(-28.765 -2.341)" fill="#ff4700" stroke="#ff4700" stroke-width="0.5"/>
  </g>
</svg>
